<svg height="32" viewBox="0 0 32 32" width="32" xmlns="http://www.w3.org/2000/svg"><g transform="translate(-.59322 .033897)"><path d="m3.3709983 1.9661026c-.430889 0-.777778.445999-.777778.999999v3.921801 2.0782 20.0781994c0 .5114.319271.921801.717014.921801h26.5659707c.397743 0 .717015-.4104.717015-.921801v-22.1563994c0-.5114-.319272-.9218-.717015-.9218h-12.726246c-.886457.034-1.31646-.2642-1.707424-.7362l-1.848624-2.42c-.261411-.4404-.458691-.8438-.88958-.8438z" fill="#1d99f3"/><path d="m9.2611891 9.8305095c-.369134 0-.667969.2988755-.667969.6679695v14.664062c0 .369134.298835.667969.667969.667969h14.6640619c.369134 0 .667969-.298835.667969-.667969v-11.558593c0-.177214-.06994-.347316-.195312-.472657l-3.105469-3.105468c-.12534-.1253345-.295351-.1953135-.472657-.1953135zm1.9707029 1.5273445h9.177734v4.900391h-9.177734zm5.570312.472656c-.115073 0-.208984.107395-.208984.240235v3.519531c0 .13288.09391.240234.208984.240234h1.582032c.115073 0 .208984-.107354.208984-.240234v-3.519531c0-.13284-.09391-.240235-.208984-.240235z" fill="#fff"/></g></svg>