<svg height="32" viewBox="0 0 32 32" width="32" xmlns="http://www.w3.org/2000/svg"><path d="m13.821754 2.0069591c-1.223051.0381991-2.417448.2467212-3.582594.6245465-1.553727.5035541-2.9127057 1.2271936-4.0787668 2.1740818-1.1660609.9468881-2.1188814 2.1003454-2.860236 3.4603023-.7415786 1.360147-1.1652204 2.8086883-1.2732416 4.3414223-.1079651 1.532752.1087123 3.014877.6530398 4.452839.5441967 1.437531 1.3298579 2.695248 2.353136 3.774261 1.0232594 1.079202 2.2698086 1.963883 3.7394608 2.650084 1.4698768.686218 3.0316178 1.078234 4.6880238 1.178191 2.548669.153834 4.906979-.37257 7.073959-1.576551l5.570908 5.860589c.388207.432462.895401.667792 1.521318.705559.602252.0363 1.136792-.135684 1.605226-.516517.468863-.380539.723216-.850458.762499-1.407749.04016-.567732-.138972-1.063058-.539938-1.485392l-5.570908-5.874087c1.571528-1.83188 2.438686-3.927922 2.604855-6.285947.107966-1.532752-.108712-3.018644-.653021-4.4562095-.544178-1.437738-1.326216-2.6952487-2.349494-3.7742609-1.023278-1.0790121-2.269789-1.9607026-3.73946-2.6467134-1.470083-.6862356-3.035259-1.0816048-4.691665-1.181562-.414096-.0250628-.825429-.0295568-1.233101-.0172847zm.944883 4.1354929c2.142847.1292893 3.924158.9428091 5.348364 2.4441545 1.423983 1.5013455 2.066021 3.2430335 1.926282 5.2259125-.139719 1.983069-1.018888 3.634774-2.641354 4.952453-1.622671 1.317679-3.508083 1.911821-5.651154 1.782481-2.142847-.12929-3.924347-.946198-5.3483477-2.447526-1.4239819-1.501536-2.0660383-3.242826-1.9262813-5.225912.1397196-1.982879 1.0225495-3.631594 2.6449968-4.9490825 1.6224482-1.317696 3.5046462-1.9118043 5.6474942-1.7824805zm-10.3464627 20.400617c-1.0348217 0-1.8679092.770895-1.8679092 1.728465s.8330875 1.728466 1.8679092 1.728466 1.8679092-.770896 1.8679092-1.728466-.8330875-1.728465-1.8679092-1.728465zm7.4716367 0c-1.034821 0-1.867909.770895-1.867909 1.728465s.833088 1.728466 1.867909 1.728466c1.034822 0 1.86791-.770896 1.86791-1.728466s-.833088-1.728465-1.86791-1.728465zm7.471638 0c-1.034822 0-1.867909.770895-1.867909 1.728465s.833087 1.728466 1.867909 1.728466 1.867909-.770896 1.867909-1.728466-.833087-1.728465-1.867909-1.728465z" fill="#1d99f3"/></svg>