<svg height="32" viewBox="0 0 32 32" width="32" xmlns="http://www.w3.org/2000/svg"><path d="m13.976565 2.0000015c-.352403 0-.571227.1689568-.656251.5092774-.157965.6074746-.335349 1.7378008-.529785 3.3906248-.571228.1825783-1.122959.4143869-1.657716.6938472l-2.5156248-1.9516597c-.1579659-.1215001-.317132-.1811526-.4750979-.1811526-.2673783 0-.8415382.4332108-1.7226566 1.302246-.8811182.8690351-1.4782784 1.524488-1.794434 1.9619141-.1094109.1579659-.1640625.2954974-.1640625.4169918 0 .1458846.059658.2918409.1811524.4375005.8142178.984489 1.4654569 1.822679 1.9516606 2.515625-.3038492.558922-.5408894 1.119303-.7109376 1.678221l-3.3906257.509279c-.1335778.0244-.2478847.105453-.345215.239258-.097328.133579-.1469719.271332-.1469719.416992v4.046876c0 .158182.049643.303128.1469719.430663.097331.127761.2248469.20142.3828127.225586l3.3359381.492188c.1700475.595393.4168795 1.197213.7451173 1.804689-.2186015.303848-.5469484.73205-.9843751 1.285155-.4374267.553103-.7475572.958083-.9296877 1.213379-.09733.134037-.1435543.274526-.1435543.420409 0 .157973.04144.295498.1264661.416993.4738975.656475 1.4764841 1.677278 3.007813 3.0625.1338021.133808.2845417.20166.4545899.20166.1823545 0 .336513-.05487.458008-.164062l2.5703131-1.951659c.49851.255294 1.045233.482097 1.640625.676756l.509278 3.353028c.0123.157972.08096.289695.208496.393065.127536.103605.277707.153808.447755.153808h4.046875c.352851 0 .571001-.168962.656249-.509277.157745-.607699.33535-1.737801.529785-3.390626.571228-.182354 1.123184-.414386 1.657717-.693848l2.515624 1.968752c.170048.109178.329438.164062.475098.164062.267154 0 .83755-.432417 1.712404-1.29541.8753-.862772 1.476896-1.519018 1.804688-1.96875.10941-.1215.164061-.259026.164061-.416994 0-.157972-.05942-.312571-.181152-.458006-.874853-1.069515-1.526092-1.907927-1.95166-2.515625.242989-.449732.48003-1.001465.710936-1.657715l3.373536-.509279c.145653-.0244.265198-.105453.362306-.239256.09711-.133808.146965-.271334.146965-.416994v-4.046875c.000225-.15797-.04942-.302902-.146965-.430662-.09754-.127776-.224847-.201423-.382812-.225586l-3.335939-.512697c-.182354-.583309-.429185-1.17648-.745118-1.784179.218601-.30385.546949-.732051.984376-1.2851566.437425-.5531048.747333-.9580827.929687-1.213379.09734-.1338077.143553-.2745271.143553-.4204104 0-.1700471-.04121-.3025724-.126469-.3999014-.437427-.6200058-1.440018-1.653794-3.007818-3.1000993-.145442-.1215001-.296847-.1811512-.454589-.1811512-.182354 0-.328087.054876-.437501.1640624l-2.59081 1.9516612c-.498511-.255295-1.045234-.482321-1.640625-.676757l-.509279-3.3530286c-.012063-.1579644-.080953-.2896946-.208497-.3930657-.12776-.1033753-.277258-.1538094-.447752-.1538094zm2.023438 9.3344725c1.288338 0 2.387017.455863 3.298342 1.367188.911322.911547 1.367188 2.01 1.367188 3.29834 0 1.288338-.455866 2.387015-1.367188 3.29834-.911325.911548-2.010004 1.367187-3.298342 1.367187-1.28834 0-2.386794-.455639-3.298342-1.367187-.911323-.911325-1.367187-2.010002-1.367187-3.29834 0-1.28834.45564-2.386793 1.367187-3.29834.911548-.911325 2.010226-1.367188 3.298342-1.367188z" fill="#1d99f3"/></svg>