<svg height="32" viewBox="0 0 32 32" width="32" xmlns="http://www.w3.org/2000/svg"><path d="m31 23.822586c.000131.945599-.277331 1.891015-.832575 2.605671-1.110206 1.429359-2.937281 1.428853-4.048106-.00069h-.000131l-10.12035-13.030034-10.1172753 13.026078c-1.1101126 1.429382-2.9370938 1.429037-4.0477501-.000529-.0000375-.000046-.0000562-.000069-.0001125-.000161-.0000562-.000046-.000075-.000069-.0001312-.000138-1.11127506-1.429658-1.11138756-3.782995-.0005625-5.212446l12.1407936-15.6314985c.555019-.7144493 1.292513-1.0789971 2.023857-1.0788384.730781.0001633 1.46835.3646421 2.02365 1.0792294h.000131l12.145312 15.6368805c.555394.71507.833138 1.660831.83325 2.606476z" fill="#1d99f3"/></svg>