<svg height="32" viewBox="0 0 32 32" width="32" xmlns="http://www.w3.org/2000/svg"><path d="m13.666664 2c-.430934 0-.777777.34685-.777777.7777769v10.1111111h-10.1111101c-.4308868 0-.777777.346885-.777777.777782v4.666664c0 .43089.346892.777776.777777.777776h10.1111101v10.111113c0 .430934.34685.777777.777777.777777h4.666667c.430936 0 .777779-.34685.777779-.777777v-10.111113h10.111113c.430886 0 .777777-.346884.777777-.777776v-4.666664c0-.430892-.346885-.777782-.777777-.777782h-10.111113v-10.1111111c0-.4309339-.34685-.7777769-.777779-.7777769z" fill="#1d99f3"/></svg>