<svg viewBox="0 0 32 32" xmlns="http://www.w3.org/2000/svg"><g transform="matrix(1 0 0 .95823666 0 .603248)"><path d="m24.367187 6.7076271-6.726562 7.3281249 1.3125 1.203125 6.726562-7.3281249c-.247912-.236936-.828444-.739914-1.3125-1.203125zm-16.7343745.109375-1.3125 1.203125 6.6650395 7.1777339 1.319336-1.216796zm7.4921875 13.6718749v3.71875h1.75v-3.71875c-.695.0077-1.23339.0012-1.75 0z" fill="#1d99f3" stroke-width="1.75"/><path d="m4.6250002 1.4576271a2.6249928 2.7394068 0 0 0 -2.625 2.7394068 2.6249928 2.7394068 0 0 0 2.625 2.7394068 2.6249928 2.7394068 0 0 0 2.625-2.7394068 2.6249928 2.7394068 0 0 0 -2.625-2.7394068zm22.7499998 0a2.6249928 2.7394068 0 0 0 -2.625 2.7394068 2.6249928 2.7394068 0 0 0 2.625 2.7394068 2.6249928 2.7394068 0 0 0 2.625-2.7394068 2.6249928 2.7394068 0 0 0 -2.625-2.7394068zm-11.375 12.7838979a2.6249928 2.7394068 0 0 0 -2.625 2.739407 2.6249928 2.7394068 0 0 0 2.625 2.739407 2.6249928 2.7394068 0 0 0 2.625-2.739407 2.6249928 2.7394068 0 0 0 -2.625-2.739407zm0 10.957627a2.6249928 2.7394068 0 0 0 -2.625 2.739407 2.6249928 2.7394068 0 0 0 2.625 2.739407 2.6249928 2.7394068 0 0 0 2.625-2.739407 2.6249928 2.7394068 0 0 0 -2.625-2.739407z" fill="#f47750" stroke-width="1.787729"/></g></svg>